<mxfile host="app.diagrams.net" modified="2024-04-19T11:49:27.959Z" agent="Mozilla/5.0 (X11; Linux x86_64) AppleWebKit/537.36 (KHTML, like Gecko) Chrome/124.0.0.0 Safari/537.36" etag="ePR3VWXkjGsaxQh8zcRs" version="24.2.5" type="device">
  <diagram name="Page-1" id="XLHJtt5E27ApGSTVK5y7">
    <mxGraphModel dx="1364" dy="759" grid="1" gridSize="10" guides="1" tooltips="1" connect="1" arrows="1" fold="1" page="1" pageScale="1" pageWidth="827" pageHeight="1169" math="0" shadow="0">
      <root>
        <mxCell id="0" />
        <mxCell id="1" parent="0" />
        <mxCell id="ayPxO36hG8dT26YRjF3L-7" value="" style="whiteSpace=wrap;html=1;aspect=fixed;" parent="1" vertex="1">
          <mxGeometry x="110" y="90" width="1015" height="1015" as="geometry" />
        </mxCell>
        <mxCell id="ayPxO36hG8dT26YRjF3L-8" value="&lt;font style=&quot;font-size: 20px;&quot;&gt;Diagramme de cas d&#39;utilisations&lt;/font&gt;" style="text;html=1;align=center;verticalAlign=middle;whiteSpace=wrap;rounded=0;" parent="1" vertex="1">
          <mxGeometry x="350" y="40" width="366" height="30" as="geometry" />
        </mxCell>
        <mxCell id="ayPxO36hG8dT26YRjF3L-9" value="admin" style="shape=umlActor;verticalLabelPosition=bottom;verticalAlign=top;html=1;outlineConnect=0;" parent="1" vertex="1">
          <mxGeometry x="30" y="250" width="50" height="100" as="geometry" />
        </mxCell>
        <mxCell id="ayPxO36hG8dT26YRjF3L-11" value="utilisateur" style="shape=umlActor;verticalLabelPosition=bottom;verticalAlign=top;html=1;outlineConnect=0;" parent="1" vertex="1">
          <mxGeometry x="30" y="810" width="50" height="90" as="geometry" />
        </mxCell>
        <mxCell id="ayPxO36hG8dT26YRjF3L-15" value="" style="endArrow=classic;html=1;rounded=0;entryX=0.5;entryY=0;entryDx=0;entryDy=0;entryPerimeter=0;exitX=0.5;exitY=0.5;exitDx=0;exitDy=0;exitPerimeter=0;" parent="1" source="ayPxO36hG8dT26YRjF3L-9" target="ayPxO36hG8dT26YRjF3L-11" edge="1">
          <mxGeometry width="50" height="50" relative="1" as="geometry">
            <mxPoint x="80" y="620" as="sourcePoint" />
            <mxPoint x="400" y="480" as="targetPoint" />
          </mxGeometry>
        </mxCell>
        <mxCell id="U0SVPOKCEZnI3vGQQSTH-7" value="changer l&#39;état de sa task" style="ellipse;whiteSpace=wrap;html=1;" parent="1" vertex="1">
          <mxGeometry x="579" y="900" width="134" height="80" as="geometry" />
        </mxCell>
        <mxCell id="U0SVPOKCEZnI3vGQQSTH-11" value="creer un&amp;nbsp;&lt;div&gt;utilisateur&lt;/div&gt;" style="ellipse;whiteSpace=wrap;html=1;" parent="1" vertex="1">
          <mxGeometry x="120" y="110" width="120" height="80" as="geometry" />
        </mxCell>
        <mxCell id="U0SVPOKCEZnI3vGQQSTH-17" value="modifer un utilisateur" style="ellipse;whiteSpace=wrap;html=1;" parent="1" vertex="1">
          <mxGeometry x="430" y="110" width="120" height="80" as="geometry" />
        </mxCell>
        <mxCell id="U0SVPOKCEZnI3vGQQSTH-18" value="créer sa task" style="ellipse;whiteSpace=wrap;html=1;" parent="1" vertex="1">
          <mxGeometry x="577" y="710" width="144" height="80" as="geometry" />
        </mxCell>
        <mxCell id="U0SVPOKCEZnI3vGQQSTH-21" value="supprimer un utilisateur" style="ellipse;whiteSpace=wrap;html=1;" parent="1" vertex="1">
          <mxGeometry x="584" y="110" width="136" height="80" as="geometry" />
        </mxCell>
        <mxCell id="U0SVPOKCEZnI3vGQQSTH-23" value="modifier une task" style="ellipse;whiteSpace=wrap;html=1;" parent="1" vertex="1">
          <mxGeometry x="520" y="400" width="120" height="80" as="geometry" />
        </mxCell>
        <mxCell id="U0SVPOKCEZnI3vGQQSTH-24" value="supprimer une task" style="ellipse;whiteSpace=wrap;html=1;" parent="1" vertex="1">
          <mxGeometry x="310" y="440" width="120" height="80" as="geometry" />
        </mxCell>
        <mxCell id="0gLOlJeIZvDjMalIpP-v-28" value="consulter la liste des utilisateurs" style="ellipse;whiteSpace=wrap;html=1;" parent="1" vertex="1">
          <mxGeometry x="258" y="110" width="144" height="80" as="geometry" />
        </mxCell>
        <mxCell id="Qhx6stTs9FxfU0Fb_7Xq-3" value="" style="endArrow=classic;html=1;rounded=0;entryX=0;entryY=0.5;entryDx=0;entryDy=0;exitX=1;exitY=0.3333333333333333;exitDx=0;exitDy=0;exitPerimeter=0;" parent="1" source="ayPxO36hG8dT26YRjF3L-9" target="ayPxO36hG8dT26YRjF3L-14" edge="1">
          <mxGeometry width="50" height="50" relative="1" as="geometry">
            <mxPoint x="70" y="283" as="sourcePoint" />
            <mxPoint x="198" y="577" as="targetPoint" />
          </mxGeometry>
        </mxCell>
        <mxCell id="ayPxO36hG8dT26YRjF3L-14" value="se connecter" style="ellipse;whiteSpace=wrap;html=1;" parent="1" vertex="1">
          <mxGeometry x="310" y="290" width="120" height="80" as="geometry" />
        </mxCell>
        <mxCell id="U0SVPOKCEZnI3vGQQSTH-22" value="creer une task" style="ellipse;whiteSpace=wrap;html=1;" parent="1" vertex="1">
          <mxGeometry x="600" y="240" width="120" height="80" as="geometry" />
        </mxCell>
        <mxCell id="Qhx6stTs9FxfU0Fb_7Xq-14" value="se connecter" style="ellipse;whiteSpace=wrap;html=1;" parent="1" vertex="1">
          <mxGeometry x="354" y="760" width="120" height="80" as="geometry" />
        </mxCell>
        <mxCell id="Qhx6stTs9FxfU0Fb_7Xq-17" value="" style="endArrow=classic;html=1;rounded=0;entryX=0;entryY=0.5;entryDx=0;entryDy=0;" parent="1" target="Qhx6stTs9FxfU0Fb_7Xq-14" edge="1">
          <mxGeometry width="50" height="50" relative="1" as="geometry">
            <mxPoint x="70" y="840" as="sourcePoint" />
            <mxPoint x="390" y="360" as="targetPoint" />
          </mxGeometry>
        </mxCell>
        <mxCell id="Qhx6stTs9FxfU0Fb_7Xq-20" value="modifer son profil" style="ellipse;whiteSpace=wrap;html=1;" parent="1" vertex="1">
          <mxGeometry x="220" y="640" width="120" height="80" as="geometry" />
        </mxCell>
        <mxCell id="Qhx6stTs9FxfU0Fb_7Xq-26" value="" style="endArrow=classic;html=1;rounded=0;" parent="1" source="Qhx6stTs9FxfU0Fb_7Xq-20" target="Qhx6stTs9FxfU0Fb_7Xq-14" edge="1">
          <mxGeometry width="50" height="50" relative="1" as="geometry">
            <mxPoint x="404" y="733" as="sourcePoint" />
            <mxPoint x="420" y="780" as="targetPoint" />
          </mxGeometry>
        </mxCell>
        <mxCell id="Qhx6stTs9FxfU0Fb_7Xq-28" value="" style="endArrow=classic;html=1;rounded=0;" parent="1" source="U0SVPOKCEZnI3vGQQSTH-18" edge="1" target="Qhx6stTs9FxfU0Fb_7Xq-14">
          <mxGeometry width="50" height="50" relative="1" as="geometry">
            <mxPoint x="639" y="716" as="sourcePoint" />
            <mxPoint x="472" y="802" as="targetPoint" />
          </mxGeometry>
        </mxCell>
        <mxCell id="Qhx6stTs9FxfU0Fb_7Xq-29" value="" style="endArrow=classic;html=1;rounded=0;entryX=0.908;entryY=0.838;entryDx=0;entryDy=0;exitX=0;exitY=0.5;exitDx=0;exitDy=0;entryPerimeter=0;" parent="1" source="U0SVPOKCEZnI3vGQQSTH-7" target="Qhx6stTs9FxfU0Fb_7Xq-14" edge="1">
          <mxGeometry width="50" height="50" relative="1" as="geometry">
            <mxPoint x="633" y="810" as="sourcePoint" />
            <mxPoint x="482" y="812" as="targetPoint" />
          </mxGeometry>
        </mxCell>
        <mxCell id="Qhx6stTs9FxfU0Fb_7Xq-33" value="" style="endArrow=classic;html=1;rounded=0;" parent="1" source="U0SVPOKCEZnI3vGQQSTH-11" target="ayPxO36hG8dT26YRjF3L-14" edge="1">
          <mxGeometry width="50" height="50" relative="1" as="geometry">
            <mxPoint x="242" y="728" as="sourcePoint" />
            <mxPoint x="378" y="792" as="targetPoint" />
          </mxGeometry>
        </mxCell>
        <mxCell id="g6eeRnNvmT8nM78X63z--7" value="includ" style="edgeLabel;html=1;align=center;verticalAlign=middle;resizable=0;points=[];" vertex="1" connectable="0" parent="Qhx6stTs9FxfU0Fb_7Xq-33">
          <mxGeometry x="-0.1605" y="2" relative="1" as="geometry">
            <mxPoint x="-27" y="11" as="offset" />
          </mxGeometry>
        </mxCell>
        <mxCell id="g6eeRnNvmT8nM78X63z--8" value="includ" style="edgeLabel;html=1;align=center;verticalAlign=middle;resizable=0;points=[];" vertex="1" connectable="0" parent="Qhx6stTs9FxfU0Fb_7Xq-33">
          <mxGeometry x="-0.1605" y="2" relative="1" as="geometry">
            <mxPoint x="103" y="-9" as="offset" />
          </mxGeometry>
        </mxCell>
        <mxCell id="g6eeRnNvmT8nM78X63z--9" value="includ" style="edgeLabel;html=1;align=center;verticalAlign=middle;resizable=0;points=[];" vertex="1" connectable="0" parent="Qhx6stTs9FxfU0Fb_7Xq-33">
          <mxGeometry x="-0.1605" y="2" relative="1" as="geometry">
            <mxPoint x="193" y="11" as="offset" />
          </mxGeometry>
        </mxCell>
        <mxCell id="g6eeRnNvmT8nM78X63z--10" value="includ" style="edgeLabel;html=1;align=center;verticalAlign=middle;resizable=0;points=[];" vertex="1" connectable="0" parent="Qhx6stTs9FxfU0Fb_7Xq-33">
          <mxGeometry x="-0.1605" y="2" relative="1" as="geometry">
            <mxPoint x="223" y="41" as="offset" />
          </mxGeometry>
        </mxCell>
        <mxCell id="g6eeRnNvmT8nM78X63z--11" value="includ" style="edgeLabel;html=1;align=center;verticalAlign=middle;resizable=0;points=[];" vertex="1" connectable="0" parent="Qhx6stTs9FxfU0Fb_7Xq-33">
          <mxGeometry x="-0.1605" y="2" relative="1" as="geometry">
            <mxPoint x="243" y="91" as="offset" />
          </mxGeometry>
        </mxCell>
        <mxCell id="g6eeRnNvmT8nM78X63z--12" value="includ" style="edgeLabel;html=1;align=center;verticalAlign=middle;resizable=0;points=[];" vertex="1" connectable="0" parent="Qhx6stTs9FxfU0Fb_7Xq-33">
          <mxGeometry x="-0.1605" y="2" relative="1" as="geometry">
            <mxPoint x="233" y="141" as="offset" />
          </mxGeometry>
        </mxCell>
        <mxCell id="g6eeRnNvmT8nM78X63z--13" value="includ" style="edgeLabel;html=1;align=center;verticalAlign=middle;resizable=0;points=[];" vertex="1" connectable="0" parent="Qhx6stTs9FxfU0Fb_7Xq-33">
          <mxGeometry x="-0.1605" y="2" relative="1" as="geometry">
            <mxPoint x="133" y="181" as="offset" />
          </mxGeometry>
        </mxCell>
        <mxCell id="g6eeRnNvmT8nM78X63z--14" value="includ" style="edgeLabel;html=1;align=center;verticalAlign=middle;resizable=0;points=[];" vertex="1" connectable="0" parent="Qhx6stTs9FxfU0Fb_7Xq-33">
          <mxGeometry x="-0.1605" y="2" relative="1" as="geometry">
            <mxPoint x="293" y="591" as="offset" />
          </mxGeometry>
        </mxCell>
        <mxCell id="g6eeRnNvmT8nM78X63z--15" value="includ" style="edgeLabel;html=1;align=center;verticalAlign=middle;resizable=0;points=[];" vertex="1" connectable="0" parent="Qhx6stTs9FxfU0Fb_7Xq-33">
          <mxGeometry x="-0.1605" y="2" relative="1" as="geometry">
            <mxPoint x="103" y="501" as="offset" />
          </mxGeometry>
        </mxCell>
        <mxCell id="g6eeRnNvmT8nM78X63z--16" value="includ" style="edgeLabel;html=1;align=center;verticalAlign=middle;resizable=0;points=[];" vertex="1" connectable="0" parent="Qhx6stTs9FxfU0Fb_7Xq-33">
          <mxGeometry x="-0.1605" y="2" relative="1" as="geometry">
            <mxPoint x="263" y="701" as="offset" />
          </mxGeometry>
        </mxCell>
        <mxCell id="g6eeRnNvmT8nM78X63z--17" value="includ" style="edgeLabel;html=1;align=center;verticalAlign=middle;resizable=0;points=[];" vertex="1" connectable="0" parent="Qhx6stTs9FxfU0Fb_7Xq-33">
          <mxGeometry x="-0.1605" y="2" relative="1" as="geometry">
            <mxPoint x="283" y="641" as="offset" />
          </mxGeometry>
        </mxCell>
        <mxCell id="g6eeRnNvmT8nM78X63z--20" value="includ" style="edgeLabel;html=1;align=center;verticalAlign=middle;resizable=0;points=[];" vertex="1" connectable="0" parent="Qhx6stTs9FxfU0Fb_7Xq-33">
          <mxGeometry x="-0.1605" y="2" relative="1" as="geometry">
            <mxPoint x="3" y="171" as="offset" />
          </mxGeometry>
        </mxCell>
        <mxCell id="g6eeRnNvmT8nM78X63z--24" value="includ" style="edgeLabel;html=1;align=center;verticalAlign=middle;resizable=0;points=[];" vertex="1" connectable="0" parent="Qhx6stTs9FxfU0Fb_7Xq-33">
          <mxGeometry x="-0.1605" y="2" relative="1" as="geometry">
            <mxPoint x="253" y="451" as="offset" />
          </mxGeometry>
        </mxCell>
        <mxCell id="g6eeRnNvmT8nM78X63z--43" value="includ" style="edgeLabel;html=1;align=center;verticalAlign=middle;resizable=0;points=[];" vertex="1" connectable="0" parent="Qhx6stTs9FxfU0Fb_7Xq-33">
          <mxGeometry x="-0.1605" y="2" relative="1" as="geometry">
            <mxPoint x="273" y="521" as="offset" />
          </mxGeometry>
        </mxCell>
        <mxCell id="Qhx6stTs9FxfU0Fb_7Xq-34" value="" style="endArrow=classic;html=1;rounded=0;entryX=0.434;entryY=0.007;entryDx=0;entryDy=0;entryPerimeter=0;" parent="1" source="0gLOlJeIZvDjMalIpP-v-28" target="ayPxO36hG8dT26YRjF3L-14" edge="1">
          <mxGeometry width="50" height="50" relative="1" as="geometry">
            <mxPoint x="216" y="192" as="sourcePoint" />
            <mxPoint x="344" y="308" as="targetPoint" />
          </mxGeometry>
        </mxCell>
        <mxCell id="Qhx6stTs9FxfU0Fb_7Xq-35" value="" style="endArrow=classic;html=1;rounded=0;entryX=0.748;entryY=-0.008;entryDx=0;entryDy=0;entryPerimeter=0;" parent="1" source="U0SVPOKCEZnI3vGQQSTH-17" target="ayPxO36hG8dT26YRjF3L-14" edge="1">
          <mxGeometry width="50" height="50" relative="1" as="geometry">
            <mxPoint x="349" y="200" as="sourcePoint" />
            <mxPoint x="372" y="301" as="targetPoint" />
          </mxGeometry>
        </mxCell>
        <mxCell id="Qhx6stTs9FxfU0Fb_7Xq-36" value="" style="endArrow=classic;html=1;rounded=0;entryX=0.748;entryY=-0.008;entryDx=0;entryDy=0;entryPerimeter=0;" parent="1" source="U0SVPOKCEZnI3vGQQSTH-21" edge="1">
          <mxGeometry width="50" height="50" relative="1" as="geometry">
            <mxPoint x="476" y="197" as="sourcePoint" />
            <mxPoint x="410" y="299" as="targetPoint" />
          </mxGeometry>
        </mxCell>
        <mxCell id="Qhx6stTs9FxfU0Fb_7Xq-37" value="" style="endArrow=classic;html=1;rounded=0;entryX=1;entryY=0.5;entryDx=0;entryDy=0;" parent="1" source="U0SVPOKCEZnI3vGQQSTH-22" target="ayPxO36hG8dT26YRjF3L-14" edge="1">
          <mxGeometry width="50" height="50" relative="1" as="geometry">
            <mxPoint x="613" y="188" as="sourcePoint" />
            <mxPoint x="420" y="309" as="targetPoint" />
          </mxGeometry>
        </mxCell>
        <mxCell id="Qhx6stTs9FxfU0Fb_7Xq-38" value="" style="endArrow=classic;html=1;rounded=0;entryX=0.933;entryY=0.788;entryDx=0;entryDy=0;entryPerimeter=0;" parent="1" source="U0SVPOKCEZnI3vGQQSTH-23" target="ayPxO36hG8dT26YRjF3L-14" edge="1">
          <mxGeometry width="50" height="50" relative="1" as="geometry">
            <mxPoint x="625" y="286" as="sourcePoint" />
            <mxPoint x="440" y="340" as="targetPoint" />
          </mxGeometry>
        </mxCell>
        <mxCell id="Qhx6stTs9FxfU0Fb_7Xq-39" value="" style="endArrow=classic;html=1;rounded=0;entryX=0.5;entryY=1;entryDx=0;entryDy=0;" parent="1" source="U0SVPOKCEZnI3vGQQSTH-24" target="ayPxO36hG8dT26YRjF3L-14" edge="1">
          <mxGeometry width="50" height="50" relative="1" as="geometry">
            <mxPoint x="629" y="370" as="sourcePoint" />
            <mxPoint x="431" y="369" as="targetPoint" />
          </mxGeometry>
        </mxCell>
        <mxCell id="g6eeRnNvmT8nM78X63z--3" value="modifier sa task" style="ellipse;whiteSpace=wrap;html=1;" vertex="1" parent="1">
          <mxGeometry x="582" y="810" width="134" height="80" as="geometry" />
        </mxCell>
        <mxCell id="g6eeRnNvmT8nM78X63z--4" value="" style="endArrow=classic;html=1;rounded=0;entryX=1;entryY=0.5;entryDx=0;entryDy=0;exitX=0;exitY=0.5;exitDx=0;exitDy=0;" edge="1" parent="1" source="g6eeRnNvmT8nM78X63z--3" target="Qhx6stTs9FxfU0Fb_7Xq-14">
          <mxGeometry width="50" height="50" relative="1" as="geometry">
            <mxPoint x="80" y="850" as="sourcePoint" />
            <mxPoint x="364" y="810" as="targetPoint" />
          </mxGeometry>
        </mxCell>
        <mxCell id="g6eeRnNvmT8nM78X63z--18" value="changer l&#39;état de sa task" style="ellipse;whiteSpace=wrap;html=1;" vertex="1" parent="1">
          <mxGeometry x="150" y="410" width="134" height="80" as="geometry" />
        </mxCell>
        <mxCell id="g6eeRnNvmT8nM78X63z--19" value="" style="endArrow=classic;html=1;rounded=0;exitX=0.5;exitY=0;exitDx=0;exitDy=0;" edge="1" parent="1" source="g6eeRnNvmT8nM78X63z--18" target="ayPxO36hG8dT26YRjF3L-14">
          <mxGeometry width="50" height="50" relative="1" as="geometry">
            <mxPoint x="380" y="450" as="sourcePoint" />
            <mxPoint x="380" y="380" as="targetPoint" />
          </mxGeometry>
        </mxCell>
        <mxCell id="g6eeRnNvmT8nM78X63z--21" value="supprimer une task" style="ellipse;whiteSpace=wrap;html=1;" vertex="1" parent="1">
          <mxGeometry x="582" y="1000" width="120" height="80" as="geometry" />
        </mxCell>
        <mxCell id="g6eeRnNvmT8nM78X63z--23" value="" style="endArrow=classic;html=1;rounded=0;exitX=0;exitY=0.5;exitDx=0;exitDy=0;" edge="1" parent="1" source="g6eeRnNvmT8nM78X63z--21" target="Qhx6stTs9FxfU0Fb_7Xq-14">
          <mxGeometry width="50" height="50" relative="1" as="geometry">
            <mxPoint x="544" y="425" as="sourcePoint" />
            <mxPoint x="432" y="363" as="targetPoint" />
          </mxGeometry>
        </mxCell>
        <mxCell id="g6eeRnNvmT8nM78X63z--41" value="consulter la liste de ses tasks" style="ellipse;whiteSpace=wrap;html=1;" vertex="1" parent="1">
          <mxGeometry x="580" y="620" width="144" height="80" as="geometry" />
        </mxCell>
        <mxCell id="g6eeRnNvmT8nM78X63z--42" value="" style="endArrow=classic;html=1;rounded=0;entryX=0.5;entryY=0;entryDx=0;entryDy=0;exitX=0;exitY=0.5;exitDx=0;exitDy=0;" edge="1" parent="1" source="g6eeRnNvmT8nM78X63z--41" target="Qhx6stTs9FxfU0Fb_7Xq-14">
          <mxGeometry width="50" height="50" relative="1" as="geometry">
            <mxPoint x="590" y="761" as="sourcePoint" />
            <mxPoint x="466" y="782" as="targetPoint" />
          </mxGeometry>
        </mxCell>
      </root>
    </mxGraphModel>
  </diagram>
</mxfile>
